<svg width="51" height="32" viewBox="0 0 51 32" fill="none" xmlns="http://www.w3.org/2000/svg">
<g clip-path="url(#clip0_142_371)">
<path d="M12.5009 31.9895C5.65595 31.9895 0.353497 26.8863 0.128544 26.6755L0 26.5489V0H51V27.2237L50.3144 26.7071C50.2716 26.6755 45.3333 23.0801 39.2382 23.2699C33.9679 23.4385 30.4008 25.4208 26.6301 27.5295C22.6988 29.7226 18.6282 31.9895 12.5009 31.9895ZM0.856963 26.1904C1.6925 26.9601 6.57719 31.146 12.5009 31.146C18.4247 31.146 22.3667 28.9318 26.2124 26.7914C30.058 24.6511 33.7322 22.5951 39.206 22.4264C44.3264 22.2577 48.5469 24.5562 50.143 25.5789V0.843493H0.856963V26.1904Z" fill="black"/>
</g>
<defs>
<clipPath id="clip0_142_371">
<rect width="51" height="32" fill="white"/>
</clipPath>
</defs>
</svg>
